<svg width="27" height="20" viewBox="0 0 27 20" fill="none" xmlns="http://www.w3.org/2000/svg">
<path d="M9.79712 12.0473C9.79712 11.9415 9.85122 11.8463 9.93769 11.7405L14.404 6.24917C14.7392 5.82595 15.3016 6.11163 15.1069 6.63008L13.6362 10.492H16.3938C16.5993 10.492 16.7831 10.6507 16.7831 10.8412C16.7831 10.947 16.7291 11.0634 16.6317 11.1585L12.1763 16.6392C11.841 17.0625 11.2678 16.7768 11.4625 16.269L12.944 12.3965H10.1756C9.97017 12.3965 9.79712 12.2484 9.79712 12.0473ZM3.97905 19.7288H22.6877C24.9587 19.7288 26.0834 18.639 26.0834 16.4594V6.22801C26.0834 4.04842 24.9587 2.95862 22.6877 2.95862H21.1953V1.54083C21.1953 0.736705 20.7195 0.25 19.8868 0.25H16.6966C15.8747 0.25 15.3989 0.736705 15.3989 1.54083V2.95862H11.2786V1.54083C11.2786 0.736705 10.8028 0.25 9.97017 0.25H6.77994C5.94724 0.25 5.48223 0.736705 5.48223 1.54083V2.95862H3.97905C1.71887 2.95862 0.583374 4.04842 0.583374 6.22801V16.4594C0.583374 18.639 1.71887 19.7288 3.97905 19.7288Z" fill="#9EFF00"/>
</svg>
